PathFileType	4	(X/Y/Z)	C:\Users\Basilio\Documents\Thesis Gigler\squatting_fais\c3dfiles\041\SJ_pre3\markers_experimental.trc
DataRate	CameraRate	NumFrames	NumMarkers	Units	OrigDataRate	OrigDataStartFrame	OrigNumFrames
200.000000	200.000000	4	62	mm	200.000000	0	1679
Frame#	Time	FHD			LBHD			RBHD			C7			T10			CLAV			LSHO			LUUPA			LMUPA			LDUPA			LLEP			LMEP			LRAD			LUL			LRFIN			RSHO			RUPA1			RMUPA			RDUPA			RLEP			RMEP			RRAD			RUL			RUFIN			LASI			RASI			USACR			LSACR			RSACR			LTHI1			LTHI2			LTHI3			LTHI4			LLFC			LMFC			LTIB1			LTIB2			LTIB3			LTIB4			LLMAL			LMMAL			LHEE			LMT1			LMT2			LMT5			RTHI			RTHI2			RTHI3			RTHI4			RLFC			RMFC			RTIB1			RTIB2			RTIB3			RTIB4			RLMAL			RMMAL			RHEE			RMT1			RMT2			RMT5			*61			
		X1	Y1	Z1	X2	Y2	Z2	X3	Y3	Z3	X4	Y4	Z4	X5	Y5	Z5	X6	Y6	Z6	X7	Y7	Z7	X8	Y8	Z8	X9	Y9	Z9	X10	Y10	Z10	X11	Y11	Z11	X12	Y12	Z12	X13	Y13	Z13	X14	Y14	Z14	X15	Y15	Z15	X16	Y16	Z16	X17	Y17	Z17	X18	Y18	Z18	X19	Y19	Z19	X20	Y20	Z20	X21	Y21	Z21	X22	Y22	Z22	X23	Y23	Z23	X24	Y24	Z24	X25	Y25	Z25	X26	Y26	Z26	X27	Y27	Z27	X28	Y28	Z28	X29	Y29	Z29	X30	Y30	Z30	X31	Y31	Z31	X32	Y32	Z32	X33	Y33	Z33	X34	Y34	Z34	X35	Y35	Z35	X36	Y36	Z36	X37	Y37	Z37	X38	Y38	Z38	X39	Y39	Z39	X40	Y40	Z40	X41	Y41	Z41	X42	Y42	Z42	X43	Y43	Z43	X44	Y44	Z44	X45	Y45	Z45	X46	Y46	Z46	X47	Y47	Z47	X48	Y48	Z48	X49	Y49	Z49	X50	Y50	Z50	X51	Y51	Z51	X52	Y52	Z52	X53	Y53	Z53	X54	Y54	Z54	X55	Y55	Z55	X56	Y56	Z56	X57	Y57	Z57	X58	Y58	Z58	X59	Y59	Z59	X60	Y60	Z60	X61	Y61	Z61	X62	Y62	Z62	

1	0	-231.6258850097657	1748.766357421875	-943.1162109375002	-408.1453857421876	1669.697387695313	-1008.977966308594	-379.1100463867188	1672.396362304688	-858.0764770507815	-438.996795654297	1517.912719726563	-958.8465576171877	-451.7470703125001	1202.046630859375	-961.2346801757815	-280.3404541015626	1466.2314453125	-953.3406982421877	-371.5222473144532	1517.903198242188	-1122.244750976563	-431.6599426269532	1380.938232421875	-1258.3935546875	-407.3040466308595	1337.643188476563	-1259.836059570313	-454.1846313476564	1328.179443359375	-1297.763916015625	-464.9754028320314	1281.60888671875	-1321.655517578125	-512.5828857421876	1238.994018554688	-1254.853271484375	-354.4319763183594	1088.623168945313	-1167.965209960938	-339.3061523437501	1051.686279296875	-1230.593994140625	-302.4709167480469	1071.604858398438	-1133.226684570313	-375.2948303222657	1509.395629882813	-790.7899169921877	-443.971649169922	1361.421752929688	-636.7291259765626	-399.3906860351564	1336.885498046875	-637.5454101562501	-427.3160095214845	1303.09375	-599.1638183593751	-421.6315002441407	1255.033203125	-581.1898193359376	-488.6729431152345	1225.445922851563	-640.3534545898439	-375.6446228027344	1059.30712890625	-742.9753417968751	-328.6847534179688	1053.714721679688	-782.3111572265627	-346.6512451171876	1018.36181640625	-684.9012451171876	-265.1985473632813	1015.275451660156	-1065.8994140625	-280.6145324707032	1004.591735839844	-847.0831298828127	-451.5848693847657	1089.593994140625	-964.1328125000002	-464.4533996582032	1064.101440429688	-992.015075683594	-473.781463623047	1064.655151367188	-938.802673339844	-393.9366760253907	824.8856201171877	-1164.83447265625	-361.4004516601563	746.8026733398439	-1171.783325195313	-314.1938476562501	747.8956909179689	-1160.513427734375	-392.1038208007814	693.9814453125001	-1166.545288085938	-381.5743713378907	514.4682617187501	-1177.176513671875	-372.3021545410157	477.9319458007814	-1063.435180664063	-350.9939880371094	317.5243225097657	-1151.773071289063	-397.8750305175782	284.7061462402344	-1221.568603515625	-361.7768249511719	277.3956298828126	-1195.310546875	-361.3027038574219	195.6883697509766	-1175.818603515625	-417.4379272460939	101.8653411865235	-1229.240112304688	-379.2371826171876	103.3111343383789	-1147.424072265625	-473.7798156738282	52.79314041137697	-1198.191284179688	-257.5025329589844	59.89805984497072	-1169.296997070313	-250.3685302734376	59.76807785034181	-1213.748046875	-289.3474731445313	34.55638122558594	-1270.63623046875	-414.8460083007814	766.0327758789064	-763.3537597656251	-379.6131591796876	709.8053588867189	-752.5515136718751	-346.8152770996094	709.2848510742189	-755.4423217773439	-409.9259338378907	631.9655151367189	-761.9364624023439	-410.1006469726564	504.190643310547	-748.8861083984376	-385.8785705566407	471.4874877929689	-862.2728271484377	-366.2699279785157	340.7644042968751	-734.7212524414064	-442.8670349121095	260.8121032714844	-714.4167480468751	-395.9643859863282	261.9253845214844	-711.8200073242189	-368.1567993164063	212.9389648437501	-731.5948486328126	-412.5677185058595	94.0425262451172	-705.6556396484376	-381.1781616210938	102.8725280761719	-784.5972900390627	-465.5464782714845	48.99318313598634	-753.1697998046876	-247.9754638671876	54.7643165588379	-753.6868896484376	-247.0935516357422	58.41433715820314	-700.9119262695314	-292.2239990234376	36.27052307128907	-653.1708984375001	-4216.587890625001	853.156433105469	-3944.722412109376	
2	0.005	-231.6065826416016	1748.779296875	-943.1197509765627	-408.2559509277345	1669.680053710938	-1008.90380859375	-379.1088562011719	1672.487060546875	-858.052673339844	-439.0234680175782	1517.754760742188	-958.7215576171877	-451.8646240234376	1202.0791015625	-961.2591552734377	-280.3477783203126	1466.225708007813	-953.2105102539065	-371.5154418945313	1517.963623046875	-1122.178588867188	-431.6268005371095	1381.035888671875	-1258.3837890625	-407.348846435547	1337.76025390625	-1259.82373046875	-454.1851196289064	1328.268920898438	-1297.766723632813	-464.9085693359376	1281.721435546875	-1321.672119140625	-512.6605224609376	1239.08984375	-1254.909790039063	-354.5346679687501	1088.678466796875	-1168.040893554688	-339.4180603027344	1051.767578125	-1230.637817382813	-302.6394042968751	1071.652465820313	-1133.242065429688	-375.3151550292969	1509.401611328125	-790.750427246094	-444.0929565429689	1361.444458007813	-636.7344970703126	-399.4401855468751	1336.852294921875	-637.5482788085939	-427.429412841797	1303.068481445313	-599.1905517578126	-421.7102661132814	1255.016479492188	-581.2114257812501	-489.1268005371095	1225.61328125	-640.5810546875001	-375.8308715820313	1059.280029296875	-742.9790649414064	-328.8198852539063	1053.682250976563	-782.3335571289065	-346.9446716308594	1018.407836914063	-684.8365478515626	-265.2803039550782	1015.264221191406	-1065.973388671875	-280.7984924316407	1004.66162109375	-847.109558105469	-451.7675781250001	1089.625366210938	-964.1572875976565	-464.2971801757814	1063.9521484375	-992.0217895507815	-474.1630859375001	1064.6416015625	-938.8958740234377	-393.8033142089845	824.3733520507815	-1165.305786132813	-361.3314819335938	746.7779541015626	-1171.76171875	-314.1809997558594	747.9480590820314	-1160.513305664063	-392.0050659179689	693.9281616210939	-1166.56640625	-381.0751953125001	514.3794555664064	-1177.15283203125	-372.1341552734376	477.7868957519532	-1063.373291015625	-350.8056640625001	317.4797973632813	-1151.784790039063	-397.598114013672	284.7047119140626	-1221.60009765625	-361.5195922851563	277.3146057128907	-1195.2880859375	-361.1235046386719	195.6121215820313	-1175.86181640625	-417.4291381835939	101.8835601806641	-1229.229125976563	-379.2233886718751	103.3378372192383	-1147.391967773438	-473.7014465332032	52.64476394653322	-1197.975830078125	-257.4669494628907	59.88906860351564	-1169.271118164063	-250.4046020507813	59.79332733154298	-1213.728881835938	-289.3157958984376	34.57615661621094	-1270.622314453125	-415.0570068359376	766.1256103515626	-763.4011230468751	-379.7437744140626	710.4022827148439	-752.4076538085939	-346.9001464843751	709.3038330078126	-755.5311279296876	-410.048065185547	631.9444580078126	-761.9749755859376	-410.092498779297	504.2817382812501	-748.8151855468751	-385.9519653320314	471.4591369628907	-862.2502441406252	-366.3088684082032	340.7652893066407	-734.7469482421876	-442.8923339843751	260.7781677246094	-714.4196166992189	-396.0397338867189	261.9273681640626	-711.8325805664064	-368.1922912597657	212.9246063232422	-731.6276855468751	-412.5937805175782	94.03318786621095	-705.6652221679689	-381.2551879882813	102.8716049194336	-784.6256103515627	-465.5529785156251	48.96350097656251	-753.1382446289064	-246.5687713623047	54.68515777587892	-752.7709350585939	-247.0862426757813	58.40211868286134	-700.9137573242189	-292.2152404785157	36.26531982421876	-653.1460571289064	-4216.512695312501	853.1466064453127	-3944.714843750001	
3	0.01	-231.6438598632813	1748.798217773438	-943.1696777343752	-408.2079162597657	1669.70166015625	-1008.868225097656	-379.1286926269532	1672.505615234375	-857.9826660156252	-439.0727844238282	1517.765869140625	-958.6955566406252	-452.0160217285157	1202.156494140625	-961.2689208984377	-280.4279785156251	1466.208862304688	-953.1470336914065	-371.4847717285157	1517.981567382813	-1122.150634765625	-431.6581115722657	1381.129760742188	-1258.347412109375	-407.3763732910157	1337.813354492188	-1259.808227539063	-454.1978454589845	1328.39892578125	-1297.776611328125	-464.9274291992189	1281.872192382813	-1321.661987304688	-512.7149658203126	1239.205322265625	-1254.899536132813	-354.6697998046876	1088.710205078125	-1168.040649414063	-339.4943542480469	1051.814697265625	-1230.660278320313	-302.8234558105469	1071.637939453125	-1133.224975585938	-375.4172058105469	1509.3974609375	-790.716979980469	-444.1875610351564	1361.471801757813	-636.7139282226564	-399.5626831054689	1336.8359375	-637.5319213867189	-427.4769287109376	1303.08349609375	-599.1832885742189	-421.7829589843751	1255.018432617188	-581.2457275390626	-489.1875915527345	1225.72998046875	-640.4906005859376	-376.0670776367188	1059.267578125	-742.9359130859376	-329.0712280273438	1053.614501953125	-782.364685058594	-347.2606811523438	1018.346008300781	-684.8343505859376	-265.9693298339844	1015.459045410156	-1066.123657226563	-281.0971069335938	1004.556030273438	-847.0637817382815	-452.0155334472657	1089.615966796875	-964.237976074219	-464.8452453613282	1064.141479492188	-992.0578613281252	-474.1683044433595	1064.690307617188	-938.8526611328127	-393.8705139160157	824.3062133789065	-1165.295288085938	-361.2816772460938	746.7809448242189	-1171.7880859375	-314.1583862304688	747.9849243164064	-1160.499267578125	-391.8736877441407	693.8699951171876	-1166.5458984375	-380.6013183593751	514.3513793945314	-1177.160400390625	-371.6121520996094	477.8220214843751	-1063.321899414063	-350.2706298828126	317.7232360839844	-1152.292236328125	-398.021697998047	285.2301330566407	-1221.559204101563	-361.2226562500001	277.2035827636719	-1195.333618164063	-361.0576477050782	195.5506744384766	-1175.834594726563	-417.4270019531251	101.886215209961	-1229.230590820313	-379.1884155273438	103.3112258911133	-1147.363403320313	-473.7857360839845	52.79818725585939	-1198.16943359375	-257.5047607421876	59.91880035400392	-1169.235229492188	-250.412826538086	59.7501907348633	-1213.746459960938	-289.3423461914063	34.58068084716798	-1270.623413085938	-415.2190856933595	766.1520996093751	-763.3998413085939	-379.7602233886719	710.1606445312501	-752.6375732421876	-346.9769287109376	709.2748413085939	-755.5379638671876	-410.2050781250001	632.0068969726564	-761.9053344726564	-410.1380920410157	504.2730712890626	-748.8110961914064	-386.1026306152345	471.4563903808595	-862.274353027344	-366.3763427734376	341.1826782226563	-734.4531860351564	-442.9093017578126	260.7909545898438	-714.3832397460939	-396.0520629882814	261.9190673828126	-711.8214721679689	-368.2014770507813	212.9499053955079	-731.6246948242189	-412.5790100097657	94.0186233520508	-705.6405029296876	-381.2213745117188	102.8638000488282	-784.5849609375002	-465.5190734863282	48.95944976806642	-753.1251831054689	-247.9522552490235	54.75070953369142	-753.6970825195314	-246.7218170166016	58.05812454223634	-700.9520263671876	-292.2109375000001	36.24647903442384	-653.1528930664064	-4216.485839843751	853.1104125976565	-3944.884521484376	
4	0.015	-231.6586151123047	1748.780639648438	-943.1007080078127	-408.3936157226564	1669.687744140625	-1008.792785644531	-379.1278076171876	1672.497436523438	-857.9578857421877	-439.1242980957032	1518.015625	-958.7165527343752	-452.1730041503907	1202.208374023438	-961.252136230469	-280.5519714355469	1466.125732421875	-953.0787353515627	-371.5069274902344	1518.010131835938	-1122.097412109375	-431.6968078613282	1381.226440429688	-1258.3505859375	-407.3870544433595	1337.885498046875	-1259.785400390625	-454.1896057128907	1328.497192382813	-1297.781494140625	-464.9974670410157	1281.928344726563	-1321.698852539063	-512.7542114257814	1239.320434570313	-1254.95947265625	-354.8128356933594	1088.787353515625	-1168.06103515625	-339.6801452636719	1051.905517578125	-1230.680297851563	-303.0124511718751	1071.663208007813	-1133.275024414063	-375.4916687011719	1509.3974609375	-790.6656494140627	-444.2139587402345	1361.494750976563	-636.6669311523439	-399.6717834472657	1336.838256835938	-637.4628906250001	-427.6217651367189	1303.079833984375	-599.1469116210939	-421.8254394531251	1254.997314453125	-581.3051757812501	-489.3394775390626	1225.736083984375	-640.5160522460939	-376.2472534179688	1059.2646484375	-742.9545288085939	-329.4888000488282	1053.557739257813	-782.363464355469	-347.3931884765626	1018.344177246094	-684.8135375976564	-266.2924194335938	1015.484436035156	-1066.084594726563	-281.2202758789063	1004.55078125	-847.1185302734377	-452.2202453613282	1089.65576171875	-964.2371215820315	-464.4109191894532	1063.895385742188	-992.0750732421877	-474.600067138672	1064.63720703125	-938.975769042969	-393.9237670898439	824.239440917969	-1165.33154296875	-361.1866149902344	746.7617797851564	-1171.768432617188	-314.0083923339844	748.0435180664064	-1160.548828125	-391.7348937988282	693.8135986328126	-1166.5751953125	-380.1096801757813	514.2845458984376	-1177.153930664063	-371.2114562988282	477.7521057128907	-1063.255859375	-350.0373229980469	317.5967407226563	-1152.204345703125	-397.8131408691407	285.1533508300782	-1221.57421875	-360.8309020996094	276.7261657714844	-1195.465698242188	-360.9161682128907	195.4619903564454	-1175.81103515625	-417.4093322753907	101.8787307739258	-1229.217529296875	-379.1869201660157	103.2934875488282	-1147.359497070313	-473.7857360839845	52.79818725585939	-1198.16943359375	-257.0066223144532	60.43043518066408	-1169.108032226563	-250.3401184082032	59.63814926147462	-1213.757568359375	-289.3380432128907	34.57671737670899	-1270.621337890625	-415.4292297363282	766.1270141601564	-763.3842163085939	-379.9530944824219	710.1137084960939	-752.5921020507814	-347.0650329589844	709.2701416015626	-755.5523071289064	-410.3536987304689	631.9879150390626	-761.9509887695314	-410.2476501464845	504.2538452148439	-748.8101196289064	-386.1746215820314	471.4347229003907	-862.2534179687502	-366.4710083007813	340.7682495117188	-734.7471313476564	-443.055633544922	260.9354858398438	-714.0464477539064	-396.0768127441407	261.9182128906251	-711.8266601562501	-368.2339172363282	212.957748413086	-731.6298828125001	-412.5787353515626	94.01844787597658	-705.6412963867189	-381.2213745117188	102.8638000488282	-784.5849609375002	-465.5443725585939	48.9647674560547	-753.1091308593751	-246.5608215332032	54.69726943969728	-752.7608642578126	-246.783920288086	57.64264297485353	-700.7775878906251	-292.2102661132813	36.25137329101563	-653.1681518554689	-4216.510742187501	853.1064453125002	-3944.728759765626	
